<svg width="64" height="64" viewBox="0 0 64 64" fill="none" xmlns="http://www.w3.org/2000/svg">
<circle cx="32" cy="32" r="32" fill="#6850F0"/>
<path d="M41.2966 40.5523H35.6138C35.2828 39.651 34.5379 38.9087 33.6 38.5906V36.2312H37.7931C41.2138 36.2312 44 33.5538 44 30.2666C44 28.2518 42.9517 26.4227 41.2414 25.3093C41.2138 21.8365 38.2621 19 34.6207 19C32.8 19 31.0345 19.7423 29.7931 21.0147C29.3793 20.9087 28.9655 20.8557 28.5517 20.8557C26.1241 20.8557 24.0552 22.5788 23.669 24.8321C21.4345 25.7865 20 27.8807 20 30.2666C20 33.5538 22.7862 36.2312 26.2069 36.2312H31.3931V38.5906C30.4552 38.9087 29.7103 39.651 29.3793 40.5523H23.6966C23.0897 40.5523 22.5931 41.0295 22.5931 41.6127C22.5931 42.1959 23.0897 42.673 23.6966 42.673H29.4345C29.9034 43.866 31.0897 44.7143 32.4966 44.7143C33.9034 44.7143 35.0897 43.866 35.5586 42.673H41.2966C41.9034 42.673 42.4 42.1959 42.4 41.6127C42.4 41.0295 41.9034 40.5523 41.2966 40.5523ZM22.2069 30.2666C22.2069 28.57 23.3379 27.0854 25.0207 26.5817C25.4897 26.4492 25.7931 26.0515 25.7931 25.5744C25.8207 24.1429 27.0345 22.9499 28.5517 22.9499C28.9379 22.9499 29.3241 23.0295 29.7103 23.1885C30.1793 23.4006 30.7586 23.268 31.0621 22.8439C31.8897 21.757 33.2414 21.0943 34.6207 21.0943C37.0483 21.0943 39.0345 23.0029 39.0345 25.3358C39.0345 25.4683 39.0345 25.6274 39.0069 25.7599C38.9517 26.1841 39.2 26.6082 39.6138 26.8203C40.9655 27.4831 41.7931 28.782 41.7931 30.2401C41.7931 32.3608 40 34.0839 37.7931 34.0839H26.2069C24 34.1105 22.2069 32.3873 22.2069 30.2666ZM32.4966 42.5935C31.8897 42.5935 31.4207 42.1429 31.4207 41.5596C31.4207 41.0295 31.8621 40.5788 32.4138 40.5258C32.4414 40.5258 32.469 40.5258 32.4966 40.5258C32.5241 40.5258 32.5517 40.5258 32.5793 40.5258C33.131 40.5788 33.5724 41.0029 33.5724 41.5596C33.5724 42.1163 33.1034 42.5935 32.4966 42.5935Z" fill="white"/>
<path d="M27.7148 21.9994L30.2863 22.428L32.4291 21.1423L35.8577 20.2852L38.8577 21.9994L40.1434 25.8566L42.7148 28.8566V31.8566L39.2863 34.428H24.7148L22.572 33.1423L21.7148 30.1423L23.0006 26.7137L24.7148 25.8566L25.572 23.2852L27.7148 21.9994Z" fill="white"/>
</svg>
